# xmcd
#
# Track frame offsets:
#	150
#	6912
#	12458
#	17699
#	25956
#	30687
#	35352
#	39315
#	50722
#	56115
#	62475
#	68098
#	76321
#	84686
#	91355
#	95948
#	101329
#	107006
#	114230
#	121548
#	126485
#	131787
#	135367
#	141043
#	142224
#	147175
#	149065
#	154638
#	163135
#	168307
#	171952
#	176407
#	181422
#	186688
#	191358
#	196245
#	202216
#	208373
#	217646
#	220877
#	231860
#	238983
#	245197
#	251017
#	255856
#	264051
#	269164
#	272349
#	277547
#	282776
#	288423
#	294069
#	296206
#	297883
#	301442
#	307452
#
# Disc length: 4256 seconds
#
# Revision: 3
# Processed by: cddbd v1.5.2PL0 Copyright (c) Steve Scherf et al.
# Submitted via: EasyCDDAExtractor 16.0.6.1
#
DISCID=5f109e38
DTITLE=Σπύρος Σπυράκος-Γιώργος Δασκουλίδης - Live [CD2)
DYEAR=2004
DGENRE=Country
TTITLE0=Μια Δεκάρα 
TTITLE1=Απόψε Σ' Έχω Στην Αγκαλιά Μου
TTITLE2=Προσευχή 
TTITLE3=Να 'Χα Πέτρινη Καρδιά 
TTITLE4=Τα Χαμοπούλια 
TTITLE5=Χάπι 
TTITLE6=Δωστα 
TTITLE7=Αυτά Τα Χέρια 
TTITLE8=Έχει Το Θράσος 
TTITLE9=Βραδιάζει 
TTITLE10=Φεύγοντας 
TTITLE11=Μέθυσε Απόψε Το Κορίτσι Μου 
TTITLE12=Μπορεί 
TTITLE13=Πάμε Για Ύπνο Κατερίνα 
TTITLE14=Τι Θέλεις Να Κάνω 
TTITLE15=Ήρθες Εψές 
TTITLE16=Συγχωρήστε Το Απόψε Το Παιδί Μου
TTITLE17=Καλοκαίρια Και Χειμώνες 
TTITLE18=Τι Σου Λέει Για Μένα 
TTITLE19=Ζηλεύω 
TTITLE20=Δε Σ' Αφήνω 
TTITLE21=Δε Μ' Αγαπάς 
TTITLE22=Μπρός Γκρεμός Και Πίσω Εσύ 
TTITLE23=Όλα Πάνε Καλά 
TTITLE24=Λόγια Κλειδωμένα 
TTITLE25=Σήκω Χόρεψε Κουκλί Μου 
TTITLE26=Καλή Τύχη 
TTITLE27=Στο Άδειο Μου Πακέτο 
TTITLE28=Βρέχει Φωτιά Στη Στράτα Μου 
TTITLE29=Ο Τρελός 
TTITLE30=Τρελοκόριτσο 
TTITLE31=Το Πλουσιόπαιδο 
TTITLE32=Απόψε Φίλα Με 
TTITLE33=Οι Αναμνήσεις 
TTITLE34=Κοίτα Με Στα Μάτια 
TTITLE35=Να 'Χα Τη Δύναμη 
TTITLE36=Καμαρούλα Μια Σταλιά 
TTITLE37=Που Ναι Τα Χρόνια 
TTITLE38=Αφιλότιμη 
TTITLE39=Πες Πως Μ' Αντάμωσες 
TTITLE40=Με Παρέσυρε Το Ρέμα 
TTITLE41=Όσοι Είναι Αισθηματίες 
TTITLE42=Ένα Πληγωμένο Χελιδόνι 
TTITLE43=Να 'Χαν Οι Καρδιές Αμπάρες 
TTITLE44=Χαμένο Κορμί 
TTITLE45=Παντρεμένοι Κι Οι Δυο
TTITLE46=Φίλε Μου 
TTITLE47=Έρωτα Μου Αγιάτρευτε 
TTITLE48=Αγάπη Μου Επικύνδυνη 
TTITLE49=Στο Σταυροδρόμι 
TTITLE50=Αγωνία 
TTITLE51=Την Αγαπούσα Το Παραδέχομαι 
TTITLE52=Εγώ Αγαπώ Μια 
TTITLE53=Αλοίμονο Αλοίμονο 
TTITLE54=Πυρετός (Κάθε Γνωριμία) 
TTITLE55=Τελειώσαμε Λοιπόν
EXTD=
EXTT0=
EXTT1=
EXTT2=
EXTT3=
EXTT4=
EXTT5=
EXTT6=
EXTT7=
EXTT8=
EXTT9=
EXTT10=
EXTT11=
EXTT12=
EXTT13=
EXTT14=
EXTT15=
EXTT16=
EXTT17=
EXTT18=
EXTT19=
EXTT20=
EXTT21=
EXTT22=
EXTT23=
EXTT24=
EXTT25=
EXTT26=
EXTT27=
EXTT28=
EXTT29=
EXTT30=
EXTT31=
EXTT32=
EXTT33=
EXTT34=
EXTT35=
EXTT36=
EXTT37=
EXTT38=
EXTT39=
EXTT40=
EXTT41=
EXTT42=
EXTT43=
EXTT44=
EXTT45=
EXTT46=
EXTT47=
EXTT48=
EXTT49=
EXTT50=
EXTT51=
EXTT52=
EXTT53=
EXTT54=
EXTT55=
PLAYORDER=
